<svg width="95" height="26" fill="none" xmlns="http://www.w3.org/2000/svg"><path d="M12.082 24.92c2.765 0 4.984-1.366 6.656-4.506l3.72-6.963v5.905c0 3.481 2.253 5.563 5.735 5.563 2.73 0 4.744-1.194 6.69-4.505l8.566-14.472C45.326 2.768 43.995.38 39.865.38c-2.218 0-3.652.717-4.949 3.14l-5.904 11.093V4.748c0-2.936-1.4-4.37-3.994-4.37-2.048 0-3.686.888-4.949 3.346l-5.563 10.888V4.85c0-3.14-1.297-4.471-4.437-4.471H3.652C1.229.379 0 1.505 0 3.587 0 5.67 1.297 6.864 3.652 6.864H6.28v12.458c0 3.515 2.355 5.597 5.802 5.597z" fill="#873EFF"/><path fill-rule="evenodd" clip-rule="evenodd" d="M55.977.379C48.98.379 43.622 5.6 43.622 12.666S49.014 24.92 55.977 24.92 68.265 19.697 68.3 12.666C68.299 5.601 62.94.38 55.977.38zm0 16.997c-2.628 0-4.437-1.98-4.437-4.71s1.81-4.744 4.437-4.744c2.628 0 4.437 2.014 4.437 4.744s-1.775 4.71-4.437 4.71zm14.06-4.71C70.037 5.601 75.395.38 82.358.38S94.68 5.635 94.68 12.666c0 7.031-5.359 12.253-12.322 12.253-6.963 0-12.321-5.188-12.321-12.253zm7.918 0c0 2.73 1.741 4.71 4.403 4.71 2.628 0 4.437-1.98 4.437-4.71s-1.809-4.744-4.437-4.744-4.403 2.014-4.403 4.744z" fill="#873EFF"/></svg>