<svg width="129" height="71" viewBox="0 0 129 71" fill="none" xmlns="http://www.w3.org/2000/svg">
<g clip-path="url(#clip0_3119_1917)">
<rect width="129" height="71" fill="white"/>
<path d="M27.2356 59.2594V55.5401L24.1509 55.1368C23.8704 53.8485 23.3657 52.6386 22.6702 51.5631L24.5659 49.0985L21.9298 46.4658L19.462 48.3591C18.3852 47.6645 17.1737 47.1492 15.8837 46.8803L15.4799 43.7995H11.7557L11.3519 46.8803C10.0619 47.1604 8.85046 47.6645 7.7736 48.3591L5.30579 46.4658L2.66972 49.0985L4.56545 51.5631C3.86997 52.6386 3.35398 53.8485 3.08476 55.1368L0 55.5401V59.2594L3.08476 59.6627C3.36519 60.9511 3.86997 62.161 4.56545 63.2364L2.66972 65.7011L5.30579 68.3337L7.7736 66.4404C8.85046 67.135 10.0619 67.6504 11.3519 67.9192L11.7557 71H15.4799L15.8837 67.9192C17.1737 67.6391 18.3852 67.135 19.462 66.4404L21.9298 68.3337L24.5659 65.7011L22.6702 63.2364C23.3657 62.161 23.8817 60.9511 24.1509 59.6627L27.2356 59.2594ZM13.6066 61.2759C11.3071 61.2759 9.43376 59.4163 9.43376 57.1085C9.43376 54.8007 11.2958 52.941 13.6066 52.941C15.9174 52.941 17.7794 54.8007 17.7794 57.1085C17.7794 59.4163 15.9174 61.2759 13.6066 61.2759Z" fill="#D1C1FF"/>
<path d="M129 8.2789V6.59847L126.902 6.01592L126.341 4.67159L127.407 2.7783L126.218 1.59081L124.322 2.65507L122.976 2.09493L122.393 0H120.71L120.127 2.09493L118.781 2.65507L116.885 1.59081L115.696 2.7783L116.762 4.67159L116.201 6.01592L114.103 6.59847V8.2789L116.201 8.86145L116.762 10.2058L115.696 12.0991L116.885 13.2866L118.781 12.2223L120.127 12.7824L120.71 14.8774H122.393L122.976 12.7824L124.322 12.2223L126.218 13.2866L127.407 12.0991L126.341 10.2058L126.902 8.86145L129 8.2789ZM122.83 8.72701C122.124 9.43279 120.957 9.43279 120.25 8.72701C119.544 8.02123 119.544 6.85614 120.25 6.15036C120.609 5.79187 121.069 5.61262 121.54 5.61262C122.012 5.61262 122.472 5.79187 122.83 6.15036C123.537 6.85614 123.537 8.02123 122.83 8.72701Z" fill="#F2EDFF"/>
<path d="M103.933 7.76855H24.6434C22.3987 7.76855 20.579 9.58828 20.579 11.833V37.8488C20.579 40.0936 22.3987 41.9133 24.6434 41.9133H103.933C106.177 41.9133 107.997 40.0936 107.997 37.8488V11.833C107.997 9.58828 106.177 7.76855 103.933 7.76855Z" fill="#F8F8F8"/>
<path d="M40.3658 28.6785H36.5841V19.1239H40.3515C43.3454 19.1239 45.4225 21.0291 45.4225 23.894C45.4225 26.7876 43.3454 28.6785 40.3658 28.6785ZM40.3515 26.8879C42.2424 26.8879 43.3454 25.527 43.3454 23.894C43.3454 22.218 42.314 20.9145 40.3658 20.9145H38.6182V26.8879H40.3515ZM50.0747 28.8504C47.969 28.8504 46.379 27.4322 46.379 25.2119C46.379 23.2064 47.8687 21.5877 49.9601 21.5877C52.0372 21.5877 53.4267 23.1348 53.4267 25.3838V25.8135H48.2841C48.4131 26.6587 49.1007 27.3606 50.2753 27.3606C50.8626 27.3606 51.6648 27.1171 52.1088 26.6873L52.9254 27.8906C52.2378 28.5209 51.1491 28.8504 50.0747 28.8504ZM51.6791 24.5529C51.6218 23.894 51.1634 23.0775 49.9601 23.0775C48.8285 23.0775 48.3414 23.8654 48.2698 24.5529H51.6791ZM58.6944 28.8504C57.8779 28.8504 57.133 28.5066 56.56 27.7903V31.3142H54.7408V21.7596H56.56V22.6334C57.09 21.9602 57.8493 21.5877 58.6944 21.5877C60.4707 21.5877 61.7599 22.9056 61.7599 25.2119C61.7599 27.5182 60.4707 28.8504 58.6944 28.8504ZM58.1214 27.2317C59.1671 27.2317 59.8834 26.4152 59.8834 25.2119C59.8834 24.0229 59.1671 23.2064 58.1214 23.2064C57.5341 23.2064 56.8752 23.5359 56.56 23.9943V26.4295C56.8608 26.8735 57.5341 27.2317 58.1214 27.2317ZM66.3009 28.8504C64.0233 28.8504 62.6481 27.1744 62.6481 25.2119C62.6481 23.2494 64.0233 21.5877 66.3009 21.5877C68.5929 21.5877 69.9681 23.2494 69.9681 25.2119C69.9681 27.1744 68.5929 28.8504 66.3009 28.8504ZM66.3009 27.2317C67.4469 27.2317 68.0772 26.3006 68.0772 25.2119C68.0772 24.1375 67.4469 23.2064 66.3009 23.2064C65.1693 23.2064 64.539 24.1375 64.539 25.2119C64.539 26.3006 65.1693 27.2317 66.3009 27.2317ZM73.8242 28.8504C72.6209 28.8504 71.4606 28.4493 70.7301 27.776L71.5179 26.4581C72.0336 26.9452 73.0507 27.4179 73.9102 27.4179C74.698 27.4179 75.0705 27.1171 75.0705 26.6873C75.0705 25.5557 70.9736 26.4868 70.9736 23.7651C70.9736 22.6048 71.9763 21.5877 73.8099 21.5877C74.9702 21.5877 75.9013 21.9888 76.5889 22.5332L75.8583 23.8224C75.4429 23.3926 74.6551 23.0202 73.8099 23.0202C73.151 23.0202 72.7212 23.3067 72.7212 23.6935C72.7212 24.7105 76.8324 23.851 76.8324 26.6443C76.8324 27.9192 75.7437 28.8504 73.8242 28.8504ZM79.0608 21.0147C78.4735 21.0147 77.9864 20.5277 77.9864 19.9261C77.9864 19.3244 78.4735 18.8517 79.0608 18.8517C79.6624 18.8517 80.1495 19.3244 80.1495 19.9261C80.1495 20.5277 79.6624 21.0147 79.0608 21.0147ZM79.9776 28.6785H78.1583V21.7596H79.9776V28.6785ZM84.1021 28.8504C82.8272 28.8504 82.1539 28.1914 82.1539 26.9452V23.3497H81.008V21.7596H82.1539V19.8688H83.9732V21.7596H85.377V23.3497H83.9732V26.4581C83.9732 26.9022 84.2024 27.2317 84.6035 27.2317C84.8756 27.2317 85.1335 27.1314 85.2337 27.0168L85.6205 28.4063C85.3483 28.6498 84.8613 28.8504 84.1021 28.8504ZM89.1142 28.8504C87.9109 28.8504 86.7506 28.4493 86.02 27.776L86.8079 26.4581C87.3236 26.9452 88.3406 27.4179 89.2001 27.4179C89.988 27.4179 90.3604 27.1171 90.3604 26.6873C90.3604 25.5557 86.2636 26.4868 86.2636 23.7651C86.2636 22.6048 87.2663 21.5877 89.0998 21.5877C90.2601 21.5877 91.1913 21.9888 91.8788 22.5332L91.1483 23.8224C90.7329 23.3926 89.945 23.0202 89.0998 23.0202C88.4409 23.0202 88.0112 23.3067 88.0112 23.6935C88.0112 24.7105 92.1224 23.851 92.1224 26.6443C92.1224 27.9192 91.0337 28.8504 89.1142 28.8504Z" fill="#E0E0E0"/>
<path d="M113.939 28.159L34.9515 21.6493C32.7149 21.465 30.7531 23.128 30.5688 25.3646L29.4832 38.5367L44.8958 56.7179L111.139 62.1772C113.375 62.3616 115.337 60.6985 115.521 58.4619L117.657 32.542C117.842 30.3054 116.179 28.3436 113.942 28.1593L113.939 28.159Z" fill="#D1C1FF"/>
<path d="M42.2311 39.5872L29.4832 38.5366L44.8958 56.7178L45.9464 43.9699C46.1307 41.7333 44.4677 39.7715 42.2311 39.5872Z" fill="#B999FF"/>
<path d="M49.3985 42.4675L47.3713 42.3004L48.156 32.7781L52.6102 33.1452C54.6803 33.3158 55.6928 34.8078 55.5552 36.4782C55.4187 38.1342 54.1613 39.4392 52.1055 39.2697L49.6785 39.0697L49.3985 42.4675ZM51.967 37.4617C52.7665 37.5276 53.4204 37.0928 53.4851 36.3076C53.551 35.5081 52.9771 34.9721 52.1776 34.9062L50.0362 34.7297L49.8256 37.2852L51.967 37.4617ZM62.5812 43.5539L60.7539 43.4033L60.8268 42.5182C60.2278 43.1588 59.4549 43.4688 58.6126 43.3993C56.8851 43.257 55.6657 41.8341 55.8563 39.5214C56.041 37.28 57.4531 36.0165 59.2091 36.1612C60.0228 36.2283 60.7512 36.6333 61.2492 37.393L61.3221 36.5079L63.1495 36.6585L62.5812 43.5539ZM59.3166 41.8332C59.9162 41.8826 60.5999 41.6084 60.9374 41.1762L61.1374 38.7493C60.8753 38.2677 60.2468 37.8709 59.6472 37.8215C58.605 37.7356 57.8241 38.4906 57.7265 39.6755C57.6276 40.8747 58.2744 41.7473 59.3166 41.8332ZM63.9295 46.3672L64.3195 44.7752C64.4706 44.8595 64.7098 44.9223 64.8811 44.9365C65.3522 44.9753 65.6769 44.8727 65.8788 44.5156L66.1852 43.9372L63.9624 36.7255L65.9039 36.8855L67.3074 41.8306L69.5159 37.1831L71.4574 37.3432L67.5555 45.0994C66.9345 46.3562 65.9925 46.6235 64.8052 46.5544C64.6054 46.5379 64.1378 46.4563 63.9295 46.3672ZM74.8823 44.7402C72.6124 44.5531 71.3795 42.7698 71.5407 40.814C71.7019 38.8581 73.2089 37.315 75.4788 37.5021C77.7631 37.6904 78.9971 39.4594 78.8359 41.4152C78.6747 43.3711 77.1665 44.9284 74.8823 44.7402ZM75.0153 43.127C76.1574 43.2211 76.862 42.3449 76.9514 41.2599C77.0397 40.1892 76.488 39.2095 75.3459 39.1153C74.2181 39.0224 73.5134 39.8986 73.4252 40.9693C73.3358 42.0543 73.8874 43.034 75.0153 43.127ZM86.3774 45.5151L84.5643 45.3656L84.6361 44.4948C84.1226 44.9699 83.251 45.4299 82.1232 45.3369C80.6099 45.2122 79.9643 44.3254 80.0749 42.9834L80.4785 38.0866L82.2916 38.2361L81.9469 42.419C81.868 43.3755 82.3418 43.7308 83.1127 43.7943C83.8123 43.852 84.4008 43.5124 84.7478 43.1385L85.1326 38.4702L86.9457 38.6196L86.3774 45.5151ZM90.4763 46.0254C89.2057 45.9206 88.5888 45.2086 88.6912 43.9666L88.9865 40.3832L87.8444 40.2891L87.975 38.7044L89.1171 38.7986L89.2724 36.9141L91.0855 37.0635L90.9302 38.948L92.3293 39.0633L92.1987 40.648L90.7996 40.5327L90.5443 43.6306C90.5078 44.0732 90.7092 44.4204 91.1089 44.4533C91.3802 44.4757 91.6454 44.3969 91.7547 44.2909L92.0261 45.7075C91.7348 45.9279 91.2329 46.0877 90.4763 46.0254ZM95.4714 46.437C94.2722 46.3382 93.1488 45.8432 92.476 45.1122L93.3694 43.8635C93.8434 44.3912 94.8182 44.9459 95.6748 45.0165C96.46 45.0812 96.8558 44.812 96.8911 44.3837C96.9841 43.2558 92.8246 43.8473 93.0481 41.1348C93.1434 39.9784 94.2263 39.0472 96.0537 39.1978C97.2101 39.2931 98.1051 39.7693 98.7456 40.3683L97.9117 41.5931C97.5329 41.1307 96.7783 40.6948 95.936 40.6254C95.2793 40.5713 94.8275 40.8215 94.7957 41.207C94.7122 42.2206 98.8801 41.7017 98.6507 44.4856C98.5459 45.7562 97.3845 46.5947 95.4714 46.437Z" fill="#1F0342"/>
<path d="M109.377 46.4957C108.627 45.1975 108.99 43.4102 108.58 43.3001C108.169 43.1901 107.59 44.9194 106.292 45.669C104.993 46.4185 103.206 46.0555 103.096 46.4662C102.986 46.8768 104.715 47.4561 105.465 48.7543C106.214 50.0525 105.852 51.8398 106.262 51.9499C106.673 52.0599 107.252 50.3305 108.55 49.581C109.848 48.8315 111.636 49.1944 111.746 48.7838C111.856 48.3732 110.126 47.7939 109.377 46.4957Z" fill="white"/>
<path d="M108.256 54.7088C107.419 55.1916 106.268 54.9578 106.197 55.2223C106.126 55.4868 107.24 55.8599 107.723 56.6962C108.206 57.5325 107.972 58.6838 108.237 58.7547C108.501 58.8256 108.874 57.7116 109.711 57.2288C110.547 56.7459 111.698 56.9797 111.769 56.7153C111.84 56.4508 110.726 56.0776 110.243 55.2413C109.76 54.405 109.994 53.2537 109.73 53.1828C109.465 53.1119 109.092 54.2259 108.256 54.7088Z" fill="white"/>
<g clip-path="url(#clip1_3119_1917)">
<rect width="129" height="71" fill="white"/>
<path d="M24.375 13.8361V10.5074L21.6142 10.1465C21.3633 8.99347 20.9115 7.91065 20.2891 6.94813L21.9857 4.74238L19.6265 2.38623L17.4179 4.08065C16.4541 3.45903 15.3699 2.99782 14.2154 2.7572L13.854 0H10.521L10.1596 2.7572C9.0051 3.00785 7.92087 3.45903 6.95711 4.08065L4.74851 2.38623L2.38931 4.74238L4.08592 6.94813C3.4635 7.91065 3.0017 8.99347 2.76076 10.1465L0 10.5074V13.8361L2.76076 14.1971C3.01174 15.3501 3.4635 16.4329 4.08592 17.3954L2.38931 19.6012L4.74851 21.9573L6.95711 20.2629C7.92087 20.8845 9.0051 21.3457 10.1596 21.5863L10.521 24.3435H13.854L14.2154 21.5863C15.3699 21.3357 16.4541 20.8845 17.4179 20.2629L19.6265 21.9573L21.9857 19.6012L20.2891 17.3954C20.9115 16.4329 21.3733 15.3501 21.6142 14.1971L24.375 13.8361ZM12.1775 15.6408C10.1194 15.6408 8.4429 13.9765 8.4429 11.9111C8.4429 9.8457 10.1094 8.18135 12.1775 8.18135C14.2455 8.18135 15.912 9.8457 15.912 11.9111C15.912 13.9765 14.2455 15.6408 12.1775 15.6408Z" fill="#D1C1FF"/>
<path d="M14.8966 36.3402V34.6598L12.799 34.0772L12.2381 32.7329L13.3037 30.8396L12.1147 29.6521L10.219 30.7164L8.8729 30.1562L8.28959 28.0613H6.607L6.0237 30.1562L4.67762 30.7164L2.7819 29.6521L1.59286 30.8396L2.65851 32.7329L2.09764 34.0772L0 34.6598V36.3402L2.09764 36.9228L2.65851 38.2671L1.59286 40.1604L2.7819 41.3479L4.67762 40.2836L6.0237 40.8438L6.607 42.9387H8.28959L8.8729 40.8438L10.219 40.2836L12.1147 41.3479L13.3037 40.1604L12.2381 38.2671L12.799 36.9228L14.8966 36.3402ZM8.72707 36.7883C8.02038 37.4941 6.85378 37.4941 6.14709 36.7883C5.4404 36.0826 5.4404 34.9175 6.14709 34.2117C6.50605 33.8532 6.96596 33.6739 7.43708 33.6739C7.90821 33.6739 8.36811 33.8532 8.72707 34.2117C9.43376 34.9175 9.43376 36.0826 8.72707 36.7883Z" fill="#F2EDFF"/>
<path d="M105.733 34.3069H22.5597C20.205 34.3069 18.2961 36.2157 18.2961 38.5704V65.8604C18.2961 68.2151 20.205 70.124 22.5597 70.124H105.733C108.087 70.124 109.996 68.2151 109.996 65.8604V38.5704C109.996 36.2157 108.087 34.3069 105.733 34.3069Z" fill="#F6F7F7"/>
<path d="M39.0521 56.7021H35.0852V46.6796H39.0371C42.1776 46.6796 44.3564 48.6781 44.3564 51.6833C44.3564 54.7186 42.1776 56.7021 39.0521 56.7021ZM39.0371 54.8238C41.0206 54.8238 42.1776 53.3963 42.1776 51.6833C42.1776 49.9252 41.0957 48.5578 39.0521 48.5578H37.2189V54.8238H39.0371ZM49.2366 56.8824C47.0277 56.8824 45.3598 55.3948 45.3598 53.0657C45.3598 50.9621 46.9225 49.2641 49.1164 49.2641C51.2952 49.2641 52.7527 50.8869 52.7527 53.2461V53.6969H47.3583C47.4935 54.5834 48.2148 55.3197 49.447 55.3197C50.063 55.3197 50.9045 55.0642 51.3703 54.6135L52.2268 55.8757C51.5056 56.5368 50.3636 56.8824 49.2366 56.8824ZM50.9195 52.3745C50.8594 51.6833 50.3786 50.8268 49.1164 50.8268C47.9293 50.8268 47.4184 51.6533 47.3433 52.3745H50.9195ZM58.2784 56.8824C57.4219 56.8824 56.6406 56.5218 56.0395 55.7705V59.467H54.1312V49.4444H56.0395V50.361C56.5955 49.6548 57.3919 49.2641 58.2784 49.2641C60.1417 49.2641 61.4941 50.6465 61.4941 53.0657C61.4941 55.485 60.1417 56.8824 58.2784 56.8824ZM57.6774 55.1845C58.7743 55.1845 59.5256 54.328 59.5256 53.0657C59.5256 51.8186 58.7743 50.9621 57.6774 50.9621C57.0613 50.9621 56.3701 51.3077 56.0395 51.7885V54.343C56.3551 54.8088 57.0613 55.1845 57.6774 55.1845ZM66.2575 56.8824C63.8684 56.8824 62.4258 55.1244 62.4258 53.0657C62.4258 51.0071 63.8684 49.2641 66.2575 49.2641C68.6618 49.2641 70.1043 51.0071 70.1043 53.0657C70.1043 55.1244 68.6618 56.8824 66.2575 56.8824ZM66.2575 55.1845C67.4596 55.1845 68.1208 54.2077 68.1208 53.0657C68.1208 51.9388 67.4596 50.9621 66.2575 50.9621C65.0705 50.9621 64.4093 51.9388 64.4093 53.0657C64.4093 54.2077 65.0705 55.1845 66.2575 55.1845ZM74.1493 56.8824C72.8871 56.8824 71.67 56.4617 70.9036 55.7555L71.7301 54.373C72.271 54.8839 73.3379 55.3798 74.2395 55.3798C75.0659 55.3798 75.4566 55.0642 75.4566 54.6135C75.4566 53.4264 71.1591 54.4031 71.1591 51.5481C71.1591 50.331 72.2109 49.2641 74.1343 49.2641C75.3514 49.2641 76.3281 49.6848 77.0494 50.2558L76.283 51.6082C75.8473 51.1574 75.0208 50.7667 74.1343 50.7667C73.4431 50.7667 72.9923 51.0672 72.9923 51.473C72.9923 52.5398 77.3048 51.6382 77.3048 54.5684C77.3048 55.9057 76.1628 56.8824 74.1493 56.8824ZM79.6424 48.663C79.0263 48.663 78.5154 48.1521 78.5154 47.521C78.5154 46.8899 79.0263 46.3941 79.6424 46.3941C80.2735 46.3941 80.7844 46.8899 80.7844 47.521C80.7844 48.1521 80.2735 48.663 79.6424 48.663ZM80.604 56.7021H78.6957V49.4444H80.604V56.7021ZM84.9306 56.8824C83.5932 56.8824 82.887 56.1912 82.887 54.8839V51.1123H81.6849V49.4444H82.887V47.4609H84.7953V49.4444H86.2679V51.1123H84.7953V54.373C84.7953 54.8389 85.0358 55.1845 85.4565 55.1845C85.742 55.1845 86.0125 55.0793 86.1177 54.9591L86.5234 56.4166C86.2379 56.6721 85.727 56.8824 84.9306 56.8824ZM90.1881 56.8824C88.9259 56.8824 87.7088 56.4617 86.9425 55.7555L87.7689 54.373C88.3099 54.8839 89.3767 55.3798 90.2783 55.3798C91.1048 55.3798 91.4954 55.0642 91.4954 54.6135C91.4954 53.4264 87.1979 54.4031 87.1979 51.5481C87.1979 50.331 88.2498 49.2641 90.1731 49.2641C91.3903 49.2641 92.367 49.6848 93.0882 50.2558L92.3219 51.6082C91.8861 51.1574 91.0597 50.7667 90.1731 50.7667C89.4819 50.7667 89.0311 51.0672 89.0311 51.473C89.0311 52.5398 93.3437 51.6382 93.3437 54.5684C93.3437 55.9057 92.2017 56.8824 90.1881 56.8824Z" fill="#DCDCDE"/>
<path d="M121.582 12.3402C120.746 12.8231 119.594 12.5893 119.524 12.8538C119.453 13.1183 120.567 13.4914 121.05 14.3277C121.532 15.164 121.299 16.3153 121.563 16.3862C121.828 16.4571 122.201 15.3431 123.037 14.8603C123.873 14.3774 125.025 14.6112 125.095 14.3467C125.166 14.0822 124.052 13.7091 123.57 12.8728C123.087 12.0365 123.321 10.8852 123.056 10.8143C122.792 10.7434 122.418 11.8574 121.582 12.3402Z" fill="white"/>
<path d="M32.8709 46.2217L115.162 58.0532C117.492 58.3882 119.652 56.7715 119.987 54.4413L121.96 40.7184L106.976 20.703L37.9631 10.7806C35.633 10.4455 33.4733 12.0623 33.1383 14.3924L29.2557 41.3964C28.9207 43.7266 30.5374 45.8862 32.8676 46.2213L32.8709 46.2217Z" fill="#D1C1FF"/>
<path d="M108.679 38.8091L121.96 40.7186L106.976 20.7032L105.067 33.9842C104.732 36.3144 106.349 38.4741 108.679 38.8091Z" fill="#B999FF"/>
<path d="M50.2983 35.4439L48.1863 35.1403L49.6126 25.2197L54.2531 25.8869C56.4097 26.197 57.3752 27.8235 57.125 29.5637C56.8769 31.289 55.4775 32.5755 53.3357 32.2676L50.8072 31.9041L50.2983 35.4439ZM53.3055 30.3657C54.1384 30.4854 54.8507 30.0717 54.9683 29.2536C55.0881 28.4207 54.5212 27.8231 53.6883 27.7033L51.4573 27.3826L51.0745 30.0449L53.3055 30.3657ZM64.0323 37.4186L62.1285 37.1448L62.2611 36.2227C61.5933 36.8553 60.7643 37.1309 59.8867 37.0047C58.0871 36.7459 56.9006 35.1787 57.247 32.7692C57.5827 30.4341 59.1415 29.2009 60.9709 29.4639C61.8187 29.5858 62.5557 30.0561 63.0288 30.8831L63.1614 29.961L65.0652 30.2347L64.0323 37.4186ZM60.7233 35.4095C61.348 35.4993 62.0814 35.2556 62.4621 34.8246L62.8257 32.2961C62.5818 31.7753 61.9489 31.3199 61.3242 31.2301C60.2385 31.074 59.3729 31.8149 59.1954 33.0494C59.0158 34.2987 59.6376 35.2534 60.7233 35.4095ZM65.2655 40.4498L65.7748 38.8076C65.9277 38.9055 66.1742 38.9865 66.3526 39.0122C66.8435 39.0827 67.1899 38.9959 67.424 38.6349L67.7815 38.0487L65.9121 30.3565L67.9348 30.6473L69.0904 35.9142L71.6978 31.1883L73.7206 31.4791L69.1425 39.3526C68.4125 40.6291 67.4093 40.8492 66.1705 40.7014C65.9623 40.6715 65.4779 40.5563 65.2655 40.4498ZM76.837 39.4417C74.4721 39.1017 73.2944 37.1562 73.5874 35.1186C73.8804 33.0809 75.5563 31.5609 77.9211 31.9009C80.3009 32.2431 81.4807 34.1737 81.1877 36.2113C80.8947 38.249 79.2167 39.7839 76.837 39.4417ZM77.0786 37.761C78.2685 37.9321 79.0619 37.0594 79.2244 35.929C79.3848 34.8135 78.8694 33.7527 77.6795 33.5816C76.5045 33.4127 75.7111 34.2853 75.5507 35.4008C75.3882 36.5312 75.9036 37.5921 77.0786 37.761ZM88.8237 40.9829L86.9348 40.7114L87.0652 39.8041C86.4974 40.269 85.5557 40.6952 84.3807 40.5263C82.8041 40.2996 82.1844 39.3301 82.3855 37.932L83.1189 32.8304L85.0079 33.102L84.3813 37.4599C84.238 38.4564 84.7115 38.8585 85.5147 38.9739C86.2435 39.0787 86.8813 38.7605 87.2684 38.3911L87.9677 33.5275L89.8566 33.7991L88.8237 40.9829ZM93.0831 41.7775C91.7594 41.5872 91.1587 40.8025 91.3447 39.5085L91.8815 35.7753L90.6916 35.6042L90.929 33.9533L92.1188 34.1244L92.4011 32.1611L94.29 32.4327L94.0078 34.3959L95.4654 34.6055L95.228 36.2565L93.7704 36.0469L93.3064 39.2744C93.2401 39.7355 93.4289 40.1118 93.8453 40.1717C94.1279 40.2123 94.4106 40.1467 94.5318 40.0427L94.726 41.5431C94.407 41.7553 93.8714 41.8908 93.0831 41.7775ZM98.2872 42.5257C97.0378 42.3461 95.8929 41.7564 95.2349 40.9483L96.2497 39.6976C96.7124 40.2803 97.6978 40.9229 98.5903 41.0512C99.4083 41.1688 99.8399 40.9121 99.9041 40.4659C100.073 39.2909 95.6802 39.6461 96.0865 36.8201C96.2597 35.6154 97.4527 34.7091 99.3565 34.9828C100.561 35.156 101.468 35.7114 102.101 36.3793L101.15 37.6088C100.783 37.1006 100.02 36.5963 99.1426 36.4701C98.4585 36.3718 97.9695 36.6051 97.9118 37.0066C97.7599 38.0627 102.157 37.784 101.74 40.6843C101.55 42.008 100.28 42.8123 98.2872 42.5257Z" fill="#1F0342"/>
<path d="M128.297 21.4996C128.297 20.3971 129.186 19.3921 128.965 19.1711C128.744 18.95 127.739 19.8384 126.636 19.8384C125.534 19.8384 124.529 18.95 124.308 19.1711C124.087 19.3921 124.975 20.3971 124.975 21.4996C124.975 22.6021 124.087 23.607 124.308 23.828C124.529 24.0491 125.534 23.1607 126.636 23.1607C127.739 23.1607 128.744 24.0491 128.965 23.828C129.186 23.607 128.297 22.6021 128.297 21.4996Z" fill="#1F0342"/>
<path d="M117.846 26.6674C118.273 25.928 119.257 25.5981 119.195 25.3643C119.132 25.1304 118.114 25.3371 117.375 24.9103C116.636 24.4834 116.306 23.4986 116.072 23.5612C115.838 23.6239 116.045 24.6418 115.618 25.3811C115.191 26.1204 114.206 26.4504 114.269 26.6842C114.331 26.918 115.349 26.7113 116.089 27.1382C116.828 27.565 117.158 28.5499 117.392 28.4872C117.626 28.4246 117.419 27.4067 117.846 26.6674Z" fill="#1F0342"/>
<path d="M122.396 13.2412C121.734 11.6153 122.441 9.59992 121.982 9.40664C121.523 9.21335 120.575 11.1269 118.949 11.7888C117.323 12.4508 115.307 11.7439 115.114 12.2027C114.921 12.6614 116.834 13.61 117.496 15.2358C118.158 16.8617 117.451 18.8771 117.91 19.0703C118.369 19.2636 119.317 17.3501 120.943 16.6882C122.569 16.0262 124.585 16.7331 124.778 16.2743C124.971 15.8156 123.058 14.867 122.396 13.2412Z" fill="#1F0342"/>
</g>
</g>
<defs>
<clipPath id="clip0_3119_1917">
<rect width="129" height="71" fill="white"/>
</clipPath>
<clipPath id="clip1_3119_1917">
<rect width="129" height="71" fill="white"/>
</clipPath>
</defs>
</svg>
