<svg width="223" height="144" viewBox="0 0 617 400" fill="none" xmlns="http://www.w3.org/2000/svg"><path fill="#fff" d="M0 0h617v400H0z"/><path d="M592.45 54.795V44.534l-8.49-1.112a29.6 29.6 0 0 0-4.087-9.85l5.207-6.79-7.25-7.251-6.789 5.207a29.2 29.2 0 0 0-9.858-4.087l-1.103-8.491h-10.26l-1.111 8.491a29.3 29.3 0 0 0-9.85 4.087l-6.789-5.207-7.25 7.251 5.207 6.79a29.3 29.3 0 0 0-4.087 9.85l-8.49 1.112v10.26l8.49 1.113a29.3 29.3 0 0 0 4.087 9.85l-5.207 6.79 7.25 7.25 6.789-5.207a29.2 29.2 0 0 0 9.85 4.087l1.111 8.483h10.26l1.111-8.483a29.2 29.2 0 0 0 9.85-4.087l6.789 5.208 7.25-7.252-5.207-6.789a29.3 29.3 0 0 0 4.087-9.85z" fill="#B999FF"/><path d="M87.16 12.16v194h20v-194z" fill="#3C087E"/><path d="M81.21 156.25c6.37 0 8.27-4.7 15.94-4.7s9.57 4.7 15.94 4.7c6.82 0 9.06-5.94 9.06-13.16s-2.24-13.16-9.06-13.16c-6.37 0-8.27 4.7-15.94 4.7s-9.57-4.7-15.94-4.7c-6.82 0-9.06 5.94-9.06 13.16s2.24 13.16 9.06 13.16" fill="#B999FF"/><path d="M314 300H194v10h120zm47 20H194v10h167z" fill="#3C087E"/><path d="M364.17 363h-170v25h170z" fill="#B999FF"/><path d="M288 340h-94v10h94zm317.17-103.67v-42.4h-71.11s7.63-15.58 7.63-32.99-11.25-34.93-32.94-34.93-32.94 18.08-32.94 34.93 7.63 32.99 7.63 32.99h-51.99v42.4c-25.91-14.66-56.24-9.7-56.24 20.75s30.33 35.41 56.24 20.75v42.4h51.99s-7.63 15.58-7.63 32.99 11.25 34.93 32.94 34.93 32.94-18.08 32.94-34.93-7.63-32.99-7.63-32.99h71.11v-42.4c-25.91 14.66-56.24 9.7-56.24-20.75s30.33-35.41 56.24-20.75" fill="#3C087E"/><path d="M182 218H12v170h170z" fill="#B999FF"/><path d="M65.84 230.7c15.4 5.4 19.14 23.76 19.14 23.76s8.09-17 32.72-16.94c-11.27 27.34-25.13 83.61-17.61 104.07 7.67 20.85 37.62 12.28 36.96 31.68H93.43L81.85 361.7l-1.5.02 1.81 11.55H64.04c-4.38-25.41-15.21-83.7 1.79-142.57z" fill="#fff"/><path d="M147 12.16v194h20v-194z" fill="#3C087E"/><path d="M141.06 91.68c6.37 0 8.27-4.7 15.94-4.7s9.57 4.7 15.94 4.7c6.82 0 9.06-5.94 9.06-13.16s-2.24-13.16-9.06-13.16c-6.37 0-8.27 4.7-15.94 4.7s-9.57-4.7-15.94-4.7c-6.82 0-9.06 5.94-9.06 13.16s2.24 13.16 9.06 13.16" fill="#B999FF"/><path d="M254.33 127c31.756 0 57.5-25.744 57.5-57.5S286.086 12 254.33 12s-57.5 25.744-57.5 57.5 25.744 57.5 57.5 57.5" fill="#3C087E"/><path d="M254.33 127c15.84 0 30.17-6.4 40.57-16.76-5.22-20.31-21.4-35.12-40.57-35.12s-35.35 14.81-40.57 35.12C224.16 120.6 238.5 127 254.33 127m0-58.5c11.416 0 20.67-9.254 20.67-20.67s-9.254-20.67-20.67-20.67-20.67 9.254-20.67 20.67 9.254 20.67 20.67 20.67" fill="#B999FF"/><path d="M73.59 248.8c19.87 29.35 17.49 84.31 3.3 84.86-16.25.63-7.66-59.07 24.09-77.31" stroke="#3C087E" stroke-width="2" stroke-miterlimit="10"/><path d="M27.31 12.16v194h20v-194z" fill="#3C087E"/><path d="M21.37 120.57c6.37 0 8.27-4.7 15.94-4.7s9.57 4.7 15.94 4.7c6.82 0 9.06-5.94 9.06-13.16s-2.24-13.16-9.06-13.16c-6.37 0-8.27 4.7-15.94 4.7s-9.57-4.7-15.94-4.7c-6.82 0-9.06 5.94-9.06 13.16s2.24 13.16 9.06 13.16" fill="#B999FF"/><path d="M67.63 237.75c-11.69 71.28-4.92 107.09 1.23 130.69m23.71-53.8s-6.77 29.21 16.34 44.72M603.44 90.14C579.49 111.65 522.28 108.02 506 71" stroke="#3C087E" stroke-width="2" stroke-miterlimit="10"/><path d="m397.03 111.049 48.328 16.361 43.893-27.91 6.409-51.184-35.906-35.906-51.175 6.41-27.919 43.892z" fill="#B999FF"/><path d="m463.604 44.476-52.465 52.455" stroke="#3C087E" stroke-width="2" stroke-miterlimit="10"/><path d="M331 194H196v24h135z" fill="#3C087E"/><path d="M331 218H196v61h135z" fill="#B999FF"/><path d="M211.73 210.44a4.72 4.72 0 1 0 0-9.44 4.72 4.72 0 0 0 0 9.44m16.85 0a4.72 4.72 0 1 0 0-9.44 4.72 4.72 0 0 0 0 9.44" fill="#fff"/><path d="M197 168c0-5.468 4.22-9.917 9.47-10h200.09c5.31 0 9.62 4.48 9.62 10s-4.31 10-9.62 10H206.45c-5.23 0-9.45-4.532-9.45-10" fill="#B999FF"/><path d="M206.45 178h147.23v-20H206.47c-5.24.083-9.47 4.532-9.47 10s4.21 10 9.45 10" fill="#3C087E"/><path d="M555.41 61.82c7.406 0 13.41-6.004 13.41-13.41S562.816 35 555.41 35 542 41.004 542 48.41s6.004 13.41 13.41 13.41" fill="#fff"/></svg>